<?xml version="1.0" standalone="no"?><!DOCTYPE svg PUBLIC "-//W3C//DTD SVG 1.1//EN" "http://www.w3.org/Graphics/SVG/1.1/DTD/svg11.dtd"><svg t="1573626242085" class="icon" viewBox="0 0 1024 1024" version="1.1" xmlns="http://www.w3.org/2000/svg" p-id="22684" xmlns:xlink="http://www.w3.org/1999/xlink" width="200" height="200"><defs><style type="text/css"></style></defs><path d="M856 376H648V168c0-8.8-7.2-16-16-16H168c-8.8 0-16 7.2-16 16v464c0 8.8 7.2 16 16 16h208v208c0 8.8 7.2 16 16 16h464c8.8 0 16-7.2 16-16V392c0-8.8-7.2-16-16-16z m-480 16v188H220V220h360v156H392c-8.8 0-16 7.2-16 16z m204 52v136H444V444h136z m224 360H444V648h188c8.8 0 16-7.2 16-16V444h156v360z" p-id="22685"></path></svg>